<svg version="1.1" id="Layer_1" xmlns="http://www.w3.org/2000/svg" xmlns:xlink="http://www.w3.org/1999/xlink" x="0px" y="0px"
	 viewBox="0 0 227.6 67.9" style="enable-background:new 0 0 227.6 67.9;" xml:space="preserve">
<g>
	<path d="M20.1,1.9c5.4,0,10.2,2.3,13.3,2.3c1.4,0,2.4-0.3,3.1-1.5l0.8,0.2l1.5,22H38C36.1,9.7,27.1,4,19.1,4
		C14.4,4,8.7,6.5,8.7,11.9c0,15.2,33.8,17.8,33.8,39.3c0,10.2-8.1,16.6-17.7,16.6c-10.2,0-12.7-3.2-18.4-3.2c-1.5,0-3.7,0.6-5.7,2.2
		H0c0.9-8.4,0.9-13.1,0-21.6h0.8c2.5,16.6,15.1,20.4,22.1,20.4c7.9,0,12-4.5,12-10.1C34.9,38.7,1,35.1,1,17.7C1,8.7,9,1.9,20.1,1.9z
		"/>
	<path d="M73.2,16.1c-6.9,0-15.7,8-15.7,27.1c0,11.6,4.4,22.4,13.9,22.4c7.1,0,12.6-8.4,10.5-17.8c3.9,0.1,9,2.3,9,7.4
		c0,5.7-5.6,12.6-19.5,12.6c-32.8,0-32.6-53.9,1.2-53.9c7.1,0,14.4,3,19.4,9.7c-4.8,6-11.8,12.2-17.6,17.7l-0.8-1
		c5.5-5.9,7.5-9.4,7.5-15.2C81.2,19.4,77.5,16.1,73.2,16.1z"/>
	<path d="M121.2,13.9c8.5,0,14.8,3.8,18.7,9.6c-7,9.5-19.5,19.6-24,26.9c-3,4.9-3.7,12-0.2,14.4c1.2,0.5,2.6,0.9,4.2,0.9
		c7.1-0.1,12.6-8.4,10.5-17.8c3.9,0.1,9,2.3,9,7.4c0,5.7-5.6,12.6-19.5,12.6C87.2,67.9,87.3,13.9,121.2,13.9z M112,53.7
		c1.6-5,5.9-9.7,9.8-13.7c5.1-5.1,7.7-10.7,7.7-15.1c0-4.9-2.8-8.8-7.9-8.8c-15.8,0-20.3,34-10,45.7C110.8,59,111.3,56.2,112,53.7z"
		/>
	<path d="M192.1,59.5c-0.1,3,1.4,4.7,2.9,4.7c1.3,0,2.6-1.1,3-3.7h0.8c-0.3,5-4,7.3-7.9,7.3c-5,0-9-2.1-8.6-12.7L183,36
		c0.2-4.8,1.3-19-6.6-19c-3.7,0-7.5,4.3-9,6.5c-3.9,5.9-6.6,15.1-6.6,22.6v-0.1v12.2c0,6.2,1.7,7.1,8.7,7.7l1,0.1V67
		c-5.7-0.3-10.3-0.5-14.8-0.5c-4.4,0-9,0.2-14.8,0.5v-0.9L142,66c6.9-0.7,8.7-1.6,8.7-7.7V26c0-6.2-1.7-7.7-8.7-7.7h-1.1v-0.9
		c7.5-0.5,12.5-2.1,19-6.4h0.9v22.1c2.3-9,8.8-19.2,19.2-19.2c12.4,0,13.4,13.5,13.1,23.2L192.1,59.5z"/>
	<path d="M216.6,59.4c0,3.3,1.3,4.7,3,4.7c3,0,5.3-3,7-5.9l0.9,0.3c-2.6,5.5-6.4,9.3-11.7,9.3c-5.4,0-9.2-3.3-9.2-8.9V21
		c0-4.1-1.7-5.3-8.7-5.3h-1v-0.9c9.2-1.6,13.7-5.7,19-14.8h0.6v14.8h9.6v0.9h-9.6V59.4z"/>
</g>
</svg>
